<svg xmlns="http://www.w3.org/2000/svg" viewBox="0 0 512 512">
	<path fill="#5c5ca7" d="
		M 0.00 0.00
		L 512.00 0.00
		L 512.00 286.76
		Q 511.72 283.49 510.95 282.31
		Q 490.50 250.91 432.46 164.35
		Q 425.10 141.65 406.12 129.16
		C 396.45 122.80 385.78 120.00 374.30 120.00
		Q 258.72 120.03 144.28 119.93
		Q 132.21 119.92 125.38 121.20
		C 100.89 125.80 83.33 146.36 78.52 170.22
		Q 77.15 176.99 77.18 186.33
		Q 77.41 246.58 77.17 305.00
		Q 77.13 315.19 78.34 322.16
		Q 83.59 352.21 111.19 367.72
		Q 111.05 368.11 111.08 368.32
		Q 111.09 368.38 111.43 368.75
		Q 176.62 440.51 241.61 512.00
		L 0.00 512.00
		L 0.00 0.00
		Z"
		/>
	<path fill="#ffffff" d="
		M 432.46 164.35
		Q 434.74 175.59 434.74 180.75
		Q 434.78 242.37 434.73 303.99
		Q 434.72 317.26 433.53 323.17
		C 428.81 346.76 412.29 366.21 388.75 371.99
		Q 382.07 373.63 369.27 373.57
		Q 339.14 373.43 311.03 373.54
		Q 310.54 373.54 310.26 373.96
		L 260.07 449.59
		A 0.39 0.39 0.0 0 1 259.42 449.59
		L 208.73 373.99
		Q 208.43 373.55 207.90 373.55
		Q 171.16 373.45 134.50 373.52
		Q 123.69 373.54 111.19 367.72
		Q 83.59 352.21 78.34 322.16
		Q 77.13 315.19 77.17 305.00
		Q 77.41 246.58 77.18 186.33
		Q 77.15 176.99 78.52 170.22
		C 83.33 146.36 100.89 125.80 125.38 121.20
		Q 132.21 119.92 144.28 119.93
		Q 258.72 120.03 374.30 120.00
		C 385.78 120.00 396.45 122.80 406.12 129.16
		Q 425.10 141.65 432.46 164.35
		Z"
		/>
	<path fill="#45457d" d="
		M 432.46 164.35
		Q 490.50 250.91 510.95 282.31
		Q 511.72 283.49 512.00 286.76
		L 512.00 512.00
		L 241.61 512.00
		Q 176.62 440.51 111.43 368.75
		Q 111.09 368.38 111.08 368.32
		Q 111.05 368.11 111.19 367.72
		Q 123.69 373.54 134.50 373.52
		Q 171.16 373.45 207.90 373.55
		Q 208.43 373.55 208.73 373.99
		L 259.42 449.59
		A 0.39 0.39 0.0 0 0 260.07 449.59
		L 310.26 373.96
		Q 310.54 373.54 311.03 373.54
		Q 339.14 373.43 369.27 373.57
		Q 382.07 373.63 388.75 371.99
		C 412.29 366.21 428.81 346.76 433.53 323.17
		Q 434.72 317.26 434.73 303.99
		Q 434.78 242.37 434.74 180.75
		Q 434.74 175.59 432.46 164.35
		Z"
		/>
</svg>
