<svg xmlns="http://www.w3.org/2000/svg" viewBox="0 0 512 512">
	<defs>
		<filter id="filter">
			<feDropShadow dx="0" dy="0" stdDeviation="4" flood-color="#c7a7ac"/>
		</filter>
		<linearGradient id="grad0" x1="0" y1="0" x2="100%" y2="100%">
			<stop offset="0" stop-color="#5c5ca7"/>
			<stop offset="100%" stop-color="#f3f3f3"/>
		</linearGradient>
	</defs>
	<rect x="120" y="147" width="250" height="225" fill="#fff"/>
	<path fill="url(#grad0)" filter="url(#filter)" d="M256,0C114.833,0,0,114.844,0,256s114.833,256,256,256s256-114.844,256-256S397.167,0,256,0z M357.771,264.969l-149.333,96c-1.75,1.135-3.771,1.698-5.771,1.698c-1.75,0-3.521-0.438-5.104-1.302C194.125,359.49,192,355.906,192,352V160c0-3.906,2.125-7.49,5.563-9.365c3.375-1.854,7.604-1.74,10.875,0.396l149.333,96c3.042,1.958,4.896,5.344,4.896,8.969S360.813,263.01,357.771,264.969z"/>
</svg>
